<svg xmlns="http://www.w3.org/2000/svg" viewBox="0 0 200 50"><defs><style>.cls-1{fill:#a67c52;}.cls-2{fill:none;stroke:#c69c6d;stroke-miterlimit:10;}.cls-3,.cls-4{fill:#fff;}.cls-4{font-size:26px;stroke:#fff;font-family:MerriweatherSans-Regular, Merriweather Sans;}</style></defs><title>home_roll</title><g id="Layer_2" data-name="Layer 2"><rect class="cls-1" width="200" height="50"/><line class="cls-2" y1="4.8" x2="117" y2="51.26"/><line class="cls-2" y1="12" x2="97" y2="51"/><line class="cls-2" y1="18.79" x2="80" y2="50.55"/><line class="cls-2" y1="25.37" x2="64" y2="50.79"/><line class="cls-2" x1="-1" y1="31.17" x2="48.95" y2="51"/><line class="cls-2" x1="-1" y1="38.36" x2="32" y2="51.46"/><line class="cls-2" x1="-1" y1="44.55" x2="17.76" y2="52"/><line class="cls-2" x1="16.11" y1="-1" x2="1" y2="5"/><line class="cls-2" x1="34.71" y1="-1" x2="9.84" y2="9"/><line class="cls-2" x1="51" y1="-0.22" x2="18.84" y2="12.55"/><line class="cls-2" x1="69.11" y1="-1" x2="26.84" y2="15.79"/><line class="cls-2" x1="82" y1="-0.71" x2="34.89" y2="18"/><line class="cls-2" x1="103" y1="-1.03" x2="43.84" y2="22.46"/><line class="cls-2" x1="120" y1="-0.57" x2="53.07" y2="26"/><line class="cls-2" x1="143" y1="-1.76" x2="63" y2="30"/><line class="cls-2" x1="162" y1="-1.85" x2="72.84" y2="34"/><line class="cls-2" x1="181" y1="-1.82" x2="81.84" y2="37.55"/><line class="cls-2" x1="195" y1="-0.97" x2="89.84" y2="40.79"/><line class="cls-2" x1="201" y1="3.06" x2="97.89" y2="44"/><line class="cls-2" x1="201.18" y1="10" x2="106.84" y2="47.46"/><line class="cls-2" x1="201" y1="17.28" x2="116.07" y2="51"/><line class="cls-2" x1="141" y1="52.34" x2="127" y2="46.79"/><line class="cls-2" x1="161.71" y1="52.79" x2="136.84" y2="42.79"/><line class="cls-2" x1="178" y1="52.01" x2="145.84" y2="39.24"/><line class="cls-2" x1="196.11" y1="52.79" x2="153.84" y2="36"/><line class="cls-2" x1="205.11" y1="49.79" x2="162.84" y2="33"/><line class="cls-2" x1="213.11" y1="45.79" x2="170.84" y2="29"/><line class="cls-2" x1="222.11" y1="42.79" x2="179.84" y2="26"/><line class="cls-2" x1="231.11" y1="38.79" x2="188.84" y2="22"/></g><g id="Layer_1" data-name="Layer 1"><rect class="cls-3" x="27.5" y="24.5" width="24" height="24"/><path class="cls-3" d="M50,26V47H29V26H50m3-3H26V50H53V23Z"/><polygon class="cls-3" points="24.05 22.5 39.5 2.46 54.95 22.5 24.05 22.5"/><path class="cls-3" d="M39.5,4.91,51.9,21H27.1L39.5,4.91M39.5,0,21,24H58L39.5,0Z"/><text class="cls-4" transform="translate(71.78 35.47)">HOME</text><rect class="cls-3" x="43.5" y="28.5" width="7" height="6.27"/><path d="M50,29v5.27H44V29h6m1-1H43v7.27h8V28Z"/><rect class="cls-3" x="28.5" y="28.5" width="7" height="6.27"/><path d="M35,29v5.27H29V29h6m1-1H28v7.27h8V28Z"/><rect x="36" y="39" width="7" height="11"/></g></svg>