<svg xmlns="http://www.w3.org/2000/svg" viewBox="0 0 200 50"><defs><style>.cls-1,.cls-2{fill:#fff;}.cls-2{font-size:26px;stroke:#fff;font-family:MerriweatherSans-Regular, Merriweather Sans;}</style></defs><title>home</title><g id="Layer_3" data-name="Layer 3"><rect width="200" height="50"/></g><g id="Layer_1" data-name="Layer 1"><rect class="cls-1" x="27.5" y="24.5" width="24" height="24"/><path class="cls-1" d="M50,26V47H29V26H50m3-3H26V50H53V23Z"/><polygon class="cls-1" points="24.05 22.5 39.5 2.46 54.95 22.5 24.05 22.5"/><path class="cls-1" d="M39.5,4.91,51.9,21H27.1L39.5,4.91M39.5,0,21,24H58L39.5,0Z"/><text class="cls-2" transform="translate(71.78 35.47)">HOME</text><rect class="cls-1" x="43.5" y="28.5" width="7" height="6.27"/><path d="M50,29v5.27H44V29h6m1-1H43v7.27h8V28Z"/><rect class="cls-1" x="28.5" y="28.5" width="7" height="6.27"/><path d="M35,29v5.27H29V29h6m1-1H28v7.27h8V28Z"/><rect x="36" y="39" width="7" height="11"/></g></svg>